<svg xmlns="http://www.w3.org/2000/svg" viewBox="0 0 250 100"><defs><style>.cls-1{font-size:11px;font-family:ArialMT, Arial;letter-spacing:0.45em;}.cls-1,.cls-4{fill:#272824;}.cls-2{font-size:21.67px;font-family:NasalizationRg-Regular, Nasalization;letter-spacing:0.07em;}.cls-2,.cls-3{fill:#56b039;}.cls-5{fill:none;stroke:#56b039;stroke-miterlimit:10;stroke-width:0.25px;}</style></defs><g id="main4"><text class="cls-1" transform="translate(94.15 64.34)">diagnostics</text><text class="cls-2" transform="translate(85.08 52.62)">RELIANCE</text><path class="cls-3" d="M39.65,43.09a7.89,7.89,0,0,0,8,7.78l12.58,0a1.26,1.26,0,0,1,0,2.52H56.54c-4.45.19-5.67.32-5.67.34-1.43.15-2.7,2.23-4,4.42-.21.36-.43.7-.64,1-1.95,3.13-4.27,6-7.95,6-4.1,0-6.36-2.71-6.36-7.64v-1h2.2v1c0,2.37,1.06,3.68,3,3.68,1.4,0,2.74-2.09,4-4.11a26.58,26.58,0,0,1,2.28-3.26.45.45,0,0,0,.09-.39.47.47,0,0,0-.33-.31C37.67,51.61,34,47.5,34,43c0-8.59,8.91-14.37,22.16-14.37a25,25,0,0,1,5.64.64V32.4a21.86,21.86,0,0,0-5.64-.73C46.28,31.67,39.65,36.26,39.65,43.09Z"/><path class="cls-3" d="M53.52,38.27a5.65,5.65,0,0,0-6,6c0,1.41.72,2.52,1.64,2.52h12l-.16-.53C59.54,41.32,56.64,38.27,53.52,38.27Z"/><path class="cls-4" d="M82.51,52.86c0,11.54-9.1,20.92-20.28,20.92a13,13,0,0,1-10.37-4.72l-.2-.27,1.2-1.4.29.17a16.24,16.24,0,0,0,8.48,2.32c9.86,0,17.89-7.64,17.89-17,0-.37,0-.73,0-1.09s0-.71-.09-1.07-.08-.64-.12-1a1.48,1.48,0,0,1,0-.19c0-.24-.09-.5-.14-.73a19.47,19.47,0,0,0-1-3.49c-.09-.22-.18-.45-.27-.65a20.31,20.31,0,0,0-2.4-4.14c-.16-.24-.34-.47-.52-.69a21.57,21.57,0,0,0-3-3.08l-.67-.54-.7-.52c-.24-.16-.47-.33-.73-.49-.49-.31-1-.61-1.5-.88a7.31,7.31,0,0,0-.79-.4,22.35,22.35,0,0,0-2.46-1l-.85-.28-.86-.24V29.23c.34.07.69.16,1,.25l1,.3a24.57,24.57,0,0,1,3.82,1.58c.29.13.55.28.84.43l.15.09.7.42c.32.19.64.4,1,.62s.56.39.83.58.57.43.84.64c.49.41,1,.82,1.43,1.25l.13.12.63.63a24.05,24.05,0,0,1,4.4,6.21c.14.25.26.52.38.79s.17.38.25.58.25.62.37,1a24,24,0,0,1,1.19,4.68c.06.34.11.68.14,1s.06.58.07.88a4.89,4.89,0,0,1,0,.54C82.5,52.15,82.51,52.5,82.51,52.86Z"/><line class="cls-5" x1="240.05" y1="75.88" x2="240.05" y2="71.25"/></g></svg>